<svg xmlns="http://www.w3.org/2000/svg" width="13" height="15" viewBox="0 0 13 15">
  <defs>
    <style>
      .cls-1 {
        fill: #6c757d;
        fill-rule: evenodd;
      }
    </style>
  </defs>
  <path id="Forma_1_copy_11" data-name="Forma 1 copy 11" class="cls-1" d="M11.16,1.794h-2.5A2.13,2.13,0,0,0,6.5,0a2.13,2.13,0,0,0-2.161,1.8h-2.5A1.78,1.78,0,0,0,0,3.507V3.595A1.721,1.721,0,0,0,1.156,5.186v8.091a1.78,1.78,0,0,0,1.837,1.713H10a1.78,1.78,0,0,0,1.837-1.713V5.186A1.721,1.721,0,0,0,13,3.595V3.507A1.78,1.78,0,0,0,11.16,1.794ZM6.5,0.81a1.287,1.287,0,0,1,1.281.984H5.215A1.287,1.287,0,0,1,6.5.81Zm4.469,12.466a0.936,0.936,0,0,1-.966.9H2.993a0.936,0.936,0,0,1-.965-0.9V5.307h8.938v7.969Zm1.161-9.682a0.936,0.936,0,0,1-.966.9H1.832a0.936,0.936,0,0,1-.966-0.9V3.507a0.936,0.936,0,0,1,.966-0.9H11.16a0.936,0.936,0,0,1,.966.9V3.595ZM4.161,13.138A0.422,0.422,0,0,0,4.6,12.732V8.159a0.437,0.437,0,0,0-.871,0v4.573A0.422,0.422,0,0,0,4.161,13.138Zm2.335,0a0.422,0.422,0,0,0,.435-0.406V8.159a0.437,0.437,0,0,0-.871,0v4.573A0.422,0.422,0,0,0,6.5,13.138Zm2.335,0a0.422,0.422,0,0,0,.436-0.406V8.159a0.437,0.437,0,0,0-.871,0v4.573A0.422,0.422,0,0,0,8.831,13.138Z"/>
</svg>
