<svg xmlns="http://www.w3.org/2000/svg" xmlns:xlink="http://www.w3.org/1999/xlink" width="1200" height="1200" viewBox="0 0 1200 1200"><g><g transform="translate(600 600) scale(0.69 0.69) rotate(-45) translate(-600 -600)" style="fill:#1A1A1A"><svg fill="#1A1A1A" xmlns="http://www.w3.org/2000/svg" xmlns:xlink="http://www.w3.org/1999/xlink" version="1.1" x="0px" y="0px" viewBox="0 0 100 100" enable-background="new 0 0 100 100" xml:space="preserve"><path d="M99.298,7.772l-7.07-7.07c0,0-5.838,1.964-16.248,12.036l-0.723-0.723l-1.414,1.414l0.707,0.707l-5.657,5.657l0.688,0.688  l-0.707,0.708L68.186,20.5l-7.778,7.778l-1.414,1.414L21.517,67.17l-1.414,1.414l-9.192,9.191l0.768,0.768  c-4.858,5.646-7.839,13.375-7.839,13.375l0.395,0.395C2.596,94.34,1.54,97.09,1.49,97.221l-0.788,2.078L2.78,98.51  c0.131-0.049,2.883-1.107,4.907-2.744l0.394,0.395c0,0,7.732-2.982,13.375-7.838l0.729,0.729l9.192-9.191l1.412-1.412l37.479-37.48  l1.405-1.405l7.785-7.785l-0.688-0.688l0.708-0.709l0.688,0.688l5.656-5.657l0.746,0.746l1.414-1.414l-0.724-0.724  C97.163,13.775,99.298,7.772,99.298,7.772z M91.783,3.085l5.121,5.121c-1.071,2.114-4.056,7.16-11.053,14.402l-8.459-8.465  C84.729,7.049,89.707,4.123,91.783,3.085z M4.527,95.473c0.324-0.582,0.705-1.191,1.127-1.738l0.609,0.611  C5.719,94.768,5.108,95.148,4.527,95.473z M10.669,83.191l6.14,6.141c-3.238,2.158-6.55,3.719-8.261,4.467l-2.347-2.348  C6.948,89.742,8.508,86.43,10.669,83.191z M18.468,88.162l-6.63-6.631c0.401-0.537,0.819-1.066,1.252-1.574l6.951,6.955  C19.532,87.344,19.006,87.762,18.468,88.162z M22.185,86.223l-8.446-8.447l7.778-7.777l8.444,8.449L22.185,86.223z M66.019,36.732  l-37.47,37.469l-2.79-2.789l37.474-37.474l1.149,1.151L66.019,36.732z M60.406,31.108l1.413,1.415L24.345,69.998l-1.414-1.414  L60.406,31.108z M31.377,77.031l-1.414-1.414l37.47-37.471l1.414,1.415L31.377,77.031z M70.269,38.139l-8.447-8.446l6.326-6.325  l8.446,8.446L70.269,38.139z M70.287,22.603l0.669-0.669l7.07,7.071l-0.669,0.67L70.287,22.603z M80.168,28.24l-8.447-8.446  l4.204-4.204l8.445,8.447L80.168,28.24z"></path></svg></g></g></svg>