<svg xmlns="http://www.w3.org/2000/svg" xmlns:xlink="http://www.w3.org/1999/xlink" width="1200" height="1200" viewBox="0 0 1200 1200"><g><g transform="translate(600 600) scale(0.69 0.69) rotate(-45) translate(-600 -600)" style="fill:#1A1A1A"><svg fill="#1A1A1A" xmlns="http://www.w3.org/2000/svg" xmlns:xlink="http://www.w3.org/1999/xlink" version="1.1" x="0px" y="0px" viewBox="0 0 100 100" enable-background="new 0 0 100 100" xml:space="preserve"><path d="M100,8.042l-6.993-6.993c0,0-5.773,1.942-16.067,11.904l-0.716-0.715l-1.399,1.398l0.699,0.699L69.93,19.93l0.681,0.681  l-0.699,0.699l-0.681-0.681l-8.906,8.907L23.077,66.783l0,0l-0.292,0.291l-1.107,1.107l0,0l-9.091,9.092l0.744,0.744  C8.43,83.503,4.895,90.56,4.895,90.56l0.7,0.7L0,96.854l6.294,2.098l3.496-3.496l0.699,0.699c0,0,7.059-3.538,12.542-8.437  l0.707,0.706l10.197-10.197L72.68,39.481l0,0l7.701-7.7l-0.681-0.68l0.7-0.701l0.68,0.681l5.595-5.595l0.737,0.738l1.399-1.399  l-0.716-0.716C97.889,13.979,100,8.042,100,8.042z M92.563,3.434l5.05,5.049c-1.043,2.075-3.953,7.002-10.91,14.202l-8.335-8.341  C85.596,7.355,90.505,4.463,92.563,3.434z M8.109,94.308l-2.051-0.684l0.935-0.935l1.367,1.367L8.109,94.308z M5.754,96.663  l-2.051-0.684l0.775-0.774l2.051,0.683L5.754,96.663z M12.244,82.524l6.28,6.279c-3.017,2.237-6.027,3.988-7.667,4.89l-3.502-3.502  C8.254,88.552,10.003,85.543,12.244,82.524z M20.103,87.585l-6.64-6.639c0.41-0.509,0.832-1.011,1.266-1.499l6.872,6.874  C21.113,86.754,20.611,87.176,20.103,87.585z M69.207,23.479l8.323,8.323l-6.24,6.24l-8.321-8.322L69.207,23.479z M67.057,36.682  L30.032,73.707l-2.729-2.729l37.028-37.027l1.938,1.94L67.057,36.682z M61.537,31.152l1.382,1.383L25.89,69.564l-1.383-1.383  L61.537,31.152z M23.738,85.596l-8.322-8.322l7.661-7.662l8.321,8.324L23.738,85.596z M32.829,76.504l-1.383-1.383l37.024-37.025  l1.383,1.385L32.829,76.504z M71.325,22.724l0.646-0.646l6.961,6.963l-0.646,0.646L71.325,22.724z M81.08,28.252l-8.321-8.322  l4.126-4.127l8.321,8.324L81.08,28.252z"></path></svg></g></g></svg>