<svg xmlns="http://www.w3.org/2000/svg" width="17" height="16" viewBox="0 0 17 16">
  <defs>
    <style>
      .cls-1 {
        fill: #656e77;
        fill-rule: evenodd;
      }
    </style>
  </defs>
  <path id="Forma_1" data-name="Forma 1" class="cls-1" d="M1.1,14.933l0.191-.051h0l0,0h0L1.48,14.83,1.344,14.7l-0.136-.128ZM12.2,0.115l4.651,4.376a0.42,0.42,0,0,1-.012.617l-9.567,9a0.522,0.522,0,0,1-.238.122L3.8,15.093l-2.29.619,0,0-0.623.167-0.334.084,0,0h0a0.558,0.558,0,0,1-.24,0,0.414,0.414,0,0,1-.313-0.525l0.544-1.783a0.131,0.131,0,0,1,.015-0.057l0.371-1.228,0.92-3.033h0a0.508,0.508,0,0,1,.1-0.193h0l0.023-.022,0,0,0,0,0,0,9.562-9A0.488,0.488,0,0,1,12.2.115h0Zm3.67,4.7L11.85,1.038l-8.9,8.377L4.955,11.3l2.008,1.889ZM2.511,14.551l1.073-.284,2.48-.67L4.291,11.929,2.519,10.261,1.807,12.595,1.5,13.6l0.5,0.473ZM13.423,2.977l0.714,0.672L6.016,11.17,5.3,10.5Z"/>
</svg>
