<svg xmlns="http://www.w3.org/2000/svg" width="15" height="15" viewBox="0 0 15 15">
  <defs>
    <style>
      .cls-1 {
        fill: #656e77;
        fill-rule: evenodd;
      }
    </style>
  </defs>
  <path id="Forma_1" data-name="Forma 1" class="cls-1" d="M14.458,8.026a0.538,0.538,0,0,0,0-1.077H13.2V3.1h1.256a0.538,0.538,0,0,0,0-1.077H13.2v-1.5a0.538,0.538,0,1,0-1.077,0v1.5H8.273v-1.5A0.538,0.538,0,1,0,7.2.525v1.5H3.345v-1.5a0.538,0.538,0,1,0-1.077,0v1.5H0.534a0.538,0.538,0,0,0,0,1.077H2.268V6.949H0.534a0.538,0.538,0,0,0,0,1.077H2.268v3.852H0.534a0.538,0.538,0,0,0,0,1.077H2.268v1.5a0.538,0.538,0,1,0,1.077,0v-1.5H7.2v1.5a0.538,0.538,0,1,0,1.077,0v-1.5h3.852v1.5a0.538,0.538,0,1,0,1.077,0v-1.5h1.256a0.538,0.538,0,0,0,0-1.077H13.2V8.026h1.256ZM12.125,3.1V6.949H8.273V3.1h3.852Zm-8.78,0H7.2V6.949H3.345V3.1Zm0,8.781V8.026H7.2v3.852H3.345Zm8.78,0H8.273V8.026h3.852v3.852Z"/>
</svg>
